<?xml version="1.0" standalone="no"?>
<!DOCTYPE svg PUBLIC "-//W3C//DTD SVG 20010904//EN"
 "http://www.w3.org/TR/2001/REC-SVG-20010904/DTD/svg10.dtd">
<svg version="1.0" xmlns="http://www.w3.org/2000/svg"
 width="321.000000pt" height="560.000000pt" viewBox="0 0 321.000000 560.000000"
 preserveAspectRatio="xMidYMid meet">

<g transform="translate(0.000000,560.000000) scale(0.100000,-0.100000)"
fill="#000" stroke="none"><polygon points="109.607 639.942 121.866 639.942 127.699 592.654 109.605 592.654 109.607 639.942" fill="#ffb8b8"/>
<path d="M1466 4510 c-59 -11 -65 -16 -110 -102 -62 -118 -58 -184 17 -265 52
-57 85 -58 109 -5 29 63 65 77 198 77 132 0 161 11 186 71 35 83 -29 176 -142
207 -75 20 -194 28 -258 17z"/><polygon points="44.379 637.585 56.532 639.205 68.564 593.103 50.629 590.712 44.379 637.585" fill="#ffb8b8"/>
<path d="M1322 3826 c-89 -29 -166 -57 -171 -62 -4 -5 -58 -174 -120 -376
l-112 -366 92 -208 91 -208 -30 -62 -31 -62 22 -20 c23 -20 80 -52 94 -52 4 0
15 13 24 28 12 21 13 34 6 50 -12 27 -4 37 65 76 l46 27 17 -53 c10 -29 27
-70 37 -92 14 -27 18 -49 14 -72 -9 -44 -57 -84 -102 -84 -24 0 -34 -5 -34
-15 0 -9 -27 -304 -60 -657 -33 -352 -59 -642 -58 -644 4 -3 172 -33 175 -31
0 1 75 285 164 631 137 527 165 624 171 595 4 -19 35 -270 68 -559 33 -289 63
-539 65 -557 5 -30 7 -31 68 -38 34 -3 74 -8 88 -11 l26 -5 7 408 c3 224 9
537 13 694 6 279 6 285 26 285 21 -1 47 48 63 119 6 30 6 30 20 -17 l14 -46
76 23 c42 13 77 25 78 27 3 3 -212 1058 -231 1137 -7 31 -22 43 -135 113
l-128 78 0 -30 c0 -66 63 -648 91 -845 16 -115 31 -219 32 -230 1 -15 -10 -26
-43 -42 -62 -32 -154 -31 -259 2 l-80 25 14 48 c82 273 111 791 57 994 -22 80
-47 139 -60 137 -4 0 -80 -24 -170 -53z m-127 -763 c-4 -68 -10 -123 -14 -123
-4 0 -18 22 -30 49 l-23 48 33 103 c40 122 45 110 34 -77z"/><circle cx="97.32782" cy="303.17101" r="24.56103" fill="#ffb8b8"/><path d="M289.1621,624.79959a10.0558,10.0558,0,0,1,.96818-15.3889l-10.57065-34.13562,17.83265,5.17981,7.30413,31.62164a10.11027,10.11027,0,0,1-15.53431,12.72307Z" transform="translate(-144.55603 -123.1929)" fill="#ffb8b8"/>
<path d="M1075 825 l-7 -65 -207 -2 -206 -2 225 -7 c149 -5 281 -15 390 -31
l165 -24 5 26 5 25 143 3 c122 2 142 0 142 -13 0 -22 375 -23 384 0 5 13 78
15 553 18 l548 2 -551 3 -550 2 -23 31 c-45 61 -71 69 -223 69 l-138 0 0 -50
0 -50 -144 0 -144 0 -26 35 c-15 19 -36 40 -48 46 -16 9 -244 49 -280 49 -3 0
-10 -29 -13 -65z"/><path d="M199.338,614.92719a10.05577,10.05577,0,0,1-1.00976-15.38624l-14.85349-32.50158,18.349,2.85437,11.292,30.42646a10.11027,10.11027,0,0,1-13.77778,14.607Z" transform="translate(-144.55603 -123.1929)" fill="#ffb8b8"/>
</g>
</svg>
